HIERARCHY
ROOT Hips
{
	OFFSET 48.669399 -16.574514 95.778000
	CHANNELS 6 Xposition Yposition Zposition Xrotation Yrotation Zrotation
	JOINT spine
	{
		OFFSET 0.000000 -0.458069 7.965683
		CHANNELS 3 Xrotation Yrotation Zrotation
		JOINT spine1
		{
			OFFSET 0.000000 -0.000002 10.243103
			CHANNELS 3 Xrotation Yrotation Zrotation
			JOINT spine2
			{
				OFFSET 0.000000 -0.000002 9.814751
				CHANNELS 3 Xrotation Yrotation Zrotation
				JOINT Neck
				{
					OFFSET 0.000000 -1.201384 25.198601
					CHANNELS 3 Xrotation Yrotation Zrotation
					JOINT Head
					{
						OFFSET 0.000000 0.000000 7.613144
						CHANNELS 3 Xrotation Yrotation Zrotation
						End Site
						{
							OFFSET 0.000000 6.077326 18.428101
						}
					}
				}
				JOINT RightShoulder
				{
					OFFSET -4.132702 0.575451 10.599205
					CHANNELS 3 Xrotation Yrotation Zrotation
					JOINT RightArm
					{
						OFFSET 0.000000 -0.000004 13.901794
						CHANNELS 3 Xrotation Yrotation Zrotation
						JOINT RightArmRoll
						{
							OFFSET 0.000000 0.000000 7.017883
							CHANNELS 3 Xrotation Yrotation Zrotation
							JOINT RightForeArm
							{
								OFFSET 0.000000 -0.000004 20.440598
								CHANNELS 3 Xrotation Yrotation Zrotation
								JOINT RightForeArmRoll
								{
									OFFSET 0.000000 -0.000002 7.875153
									CHANNELS 3 Xrotation Yrotation Zrotation
									JOINT RightHand
									{
										OFFSET 0.000000 -0.000002 15.803696
										CHANNELS 3 Xrotation Yrotation Zrotation
										End Site
										{
											OFFSET 0.000000 0.000000 0.100006
										}
									}
								}
							}
						}
					}
				}
				JOINT LeftShoulder
				{
					OFFSET 4.132702 0.575451 10.599205
					CHANNELS 3 Xrotation Yrotation Zrotation
					JOINT LeftArm
					{
						OFFSET 0.000000 -0.000004 13.901794
						CHANNELS 3 Xrotation Yrotation Zrotation
						JOINT LeftArmRoll
						{
							OFFSET 0.000000 0.000000 7.017883
							CHANNELS 3 Xrotation Yrotation Zrotation
							JOINT LeftForeArm
							{
								OFFSET 0.000000 -0.000004 20.440598
								CHANNELS 3 Xrotation Yrotation Zrotation
								JOINT LeftForeArmRoll
								{
									OFFSET 0.000000 -0.000002 7.875153
									CHANNELS 3 Xrotation Yrotation Zrotation
									JOINT LeftHand
									{
										OFFSET 0.000000 -0.000002 15.803696
										CHANNELS 3 Xrotation Yrotation Zrotation
										End Site
										{
											OFFSET 0.000000 0.000000 0.100006
										}
									}
								}
							}
						}
					}
				}
			}
		}
	}
	JOINT RightUpLeg
	{
		OFFSET -7.060482 1.086100 -1.294701
		CHANNELS 3 Xrotation Yrotation Zrotation
		JOINT RightUpLegRoll
		{
			OFFSET 0.000000 -0.000003 18.530800
			CHANNELS 3 Xrotation Yrotation Zrotation
			JOINT RightLeg
			{
				OFFSET 0.000000 0.000004 -22.947601
				CHANNELS 3 Xrotation Yrotation Zrotation
				JOINT RightLegRoll
				{
					OFFSET 0.000000 -0.000004 23.022598
					CHANNELS 3 Xrotation Yrotation Zrotation
					JOINT RightFoot
					{
						OFFSET 0.000000 -0.000004 19.162506
						CHANNELS 3 Xrotation Yrotation Zrotation
						JOINT RightToeBase
						{
							OFFSET 0.000000 -0.000002 16.018799
							CHANNELS 3 Xrotation Yrotation Zrotation
							End Site
							{
								OFFSET 0.006790 0.894204 7.757828
							}
						}
					}
				}
			}
		}
	}
	JOINT LeftUpLeg
	{
		OFFSET 7.060482 1.086100 -1.294701
		CHANNELS 3 Xrotation Yrotation Zrotation
		JOINT LeftUpLegRoll
		{
			OFFSET 0.000000 -0.000003 18.530899
			CHANNELS 3 Xrotation Yrotation Zrotation
			JOINT LeftLeg
			{
				OFFSET 0.000000 -0.000004 22.947502
				CHANNELS 3 Xrotation Yrotation Zrotation
				JOINT LeftLegRoll
				{
					OFFSET 0.000000 -0.000004 23.235504
					CHANNELS 3 Xrotation Yrotation Zrotation
					JOINT LeftFoot
					{
						OFFSET 0.000000 -0.000003 18.949600
						CHANNELS 3 Xrotation Yrotation Zrotation
						JOINT LeftToeBase
						{
							OFFSET 0.000000 -0.000003 16.018799
							CHANNELS 3 Xrotation Yrotation Zrotation
							End Site
							{
								OFFSET -0.030430 0.894205 7.757828
							}
						}
					}
				}
			}
		}
	}
}
MOTION
Frames: 9
Frame Time: 0.041667
49.353195 -13.150013 95.639893 -1.573088 1.130134 0.871342 -1.802699 -0.373361 -0.014191 0.397293 -0.758353 -0.037354 2.042429 -0.759010 -0.028197 18.360382 -0.761755 -1.386762 2.891489 -0.039631 -1.396989 7.498710 -72.446382 6.568683 -51.023661 -110.964401 -27.046256 -0.000001 0.000014 0.000001 1.108981 -2.878024 0.017675 -0.000001 0.000007 -3.000000 -5.000174 -7.999751 0.000046 4.256917 69.921418 -3.380156 -39.871745 115.032120 17.155752 0.000005 -0.000001 0.000008 2.899700 0.124055 -0.447002 -0.000003 -0.000007 3.000000 -5.000165 8.000070 -0.000022 2.477051 -176.760023 -2.135954 -179.999991 0.000005 -1.153996 174.406586 -2.585640 -0.648135 0.000001 0.000001 0.091184 69.596383 6.925507 1.995393 26.026012 -7.349208 0.847862 -0.117886 173.613013 0.055310 -0.000020 0.000011 -1.162260 -9.176649 1.833801 0.419068 -0.000006 0.000000 -0.225476 71.590614 -6.887165 -1.949370 25.579412 7.352819 -0.181069 
49.360001 -13.127917 95.639008 -1.552720 1.125057 0.864336 -1.804018 -0.372734 -0.015786 0.394632 -0.755990 -0.041238 2.039767 -0.756664 -0.032115 18.380169 -0.758717 -1.383619 2.862800 -0.039801 -1.393629 7.551121 -72.457488 6.623957 -51.066507 -110.963028 -27.082178 0.000001 0.000014 0.000002 1.096175 -2.871067 0.017670 -0.000002 0.000007 -3.000001 -5.000171 -7.999751 0.000047 4.229863 69.920769 -3.350406 -39.854021 115.026451 17.150503 0.000004 -0.000001 0.000007 2.890659 0.138881 -0.447042 -0.000003 -0.000007 3.000000 -5.000166 8.000069 -0.000023 2.391986 -176.750829 -2.129197 -179.999991 0.000005 -1.153996 174.293792 -2.591119 -0.653820 0.000002 0.000001 0.093501 69.647459 6.924327 1.995290 26.024192 -7.349213 0.845166 -0.208895 173.629037 0.084497 -0.000020 0.000011 -1.162320 -9.293042 1.814584 0.422317 -0.000006 0.000001 -0.228534 71.631868 -6.886335 -1.950087 25.582141 7.352819 -0.184965 
49.357700 -13.133120 95.639702 -1.532941 1.119919 0.856955 -1.805470 -0.372124 -0.017399 0.391735 -0.753617 -0.045166 2.036867 -0.754306 -0.036077 18.402256 -0.754673 -1.380480 2.833326 -0.040986 -1.390132 7.606970 -72.468649 6.682955 -51.108998 -110.961525 -27.116669 0.000000 0.000014 0.000000 1.082101 -2.863401 0.017679 -0.000001 0.000007 -3.000001 -5.000174 -7.999750 0.000046 4.201882 69.921733 -3.319420 -39.839800 115.019484 17.148351 0.000005 -0.000001 0.000008 2.879859 0.153877 -0.447081 -0.000003 -0.000007 3.000002 -5.000168 8.000069 -0.000021 2.309195 -176.740639 -2.122548 -179.999991 0.000005 -1.153996 174.183689 -2.596584 -0.659404 0.000002 0.000001 0.095729 69.697928 6.923160 1.995130 26.022276 -7.349213 0.842274 -0.298562 173.645101 0.114552 -0.000020 0.000011 -1.162400 -9.408245 1.794400 0.425388 -0.000005 0.000001 -0.231566 71.673123 -6.885514 -1.950807 25.584669 7.352819 -0.188691 
49.353600 -13.122316 95.641289 -1.513566 1.114711 0.849311 -1.806988 -0.371527 -0.019024 0.388673 -0.751238 -0.049124 2.033805 -0.751941 -0.040068 18.425935 -0.749924 -1.377355 2.803312 -0.042881 -1.386530 7.665277 -72.479905 6.744614 -51.153172 -110.959244 -27.152316 -0.000001 0.000014 -0.000002 1.067127 -2.855237 0.017689 -0.000000 0.000007 -3.000001 -5.000172 -7.999751 0.000044 4.173225 69.923706 -3.287539 -39.828691 115.011097 17.149073 0.000004 -0.000001 0.000005 2.867831 0.168989 -0.447129 -0.000004 -0.000007 2.999999 -5.000166 8.000070 -0.000022 2.227976 -176.731459 -2.116036 -179.999991 0.000005 -1.153996 174.075485 -2.602044 -0.663927 0.000002 0.000001 0.097894 69.747877 6.922015 1.995106 26.020150 -7.349210 0.839228 -0.387282 173.662150 0.145194 -0.000020 0.000011 -1.162490 -9.522613 1.773556 0.428307 -0.000007 0.000000 -0.234580 71.714316 -6.884768 -1.951445 25.587089 7.352816 -0.192300 
49.358894 -13.122818 95.637497 -1.494443 1.109482 0.841519 -1.808556 -0.370936 -0.020656 0.385517 -0.748854 -0.053099 2.030654 -0.749571 -0.044077 18.450614 -0.744771 -1.374225 2.772971 -0.045185 -1.382882 7.724990 -72.491188 6.807793 -51.197165 -110.956908 -27.187396 0.000003 0.000013 0.000002 1.051639 -2.846772 0.017714 0.000000 0.000007 -2.999999 -5.000173 -7.999751 0.000046 4.144207 69.926391 -3.255175 -39.819518 115.002135 17.151510 0.000004 -0.000001 0.000007 2.855095 0.184169 -0.447170 -0.000005 -0.000008 3.000000 -5.000168 8.000070 -0.000023 2.147667 -176.722307 -2.109589 -179.999991 0.000005 -1.153997 173.968361 -2.607499 -0.669419 0.000002 0.000001 0.100025 69.797635 6.920899 1.994901 26.018031 -7.349214 0.836095 -0.475464 173.678214 0.176161 -0.000020 0.000011 -1.162600 -9.636509 1.752336 0.431105 -0.000005 0.000001 -0.237583 71.755515 -6.884031 -1.952083 25.589519 7.352810 -0.195848 
49.358894 -13.115216 95.631699 -1.475363 1.104244 0.833694 -1.810147 -0.370348 -0.022290 0.382336 -0.746469 -0.057078 2.027473 -0.747199 -0.048090 18.475496 -0.739516 -1.371112 2.742553 -0.047595 -1.379210 7.785136 -72.502438 6.871436 -51.243197 -110.953957 -27.224577 -0.000000 0.000013 0.000001 1.036022 -2.838247 0.017741 -0.000000 0.000008 -2.999999 -5.000174 -7.999749 0.000044 4.115115 69.929177 -3.222700 -39.810331 114.993174 17.153943 0.000005 -0.000001 0.000005 2.842187 0.199366 -0.447203 -0.000002 -0.000006 3.000003 -5.000168 8.000069 -0.000022 2.067583 -176.713127 -2.103193 -179.999991 0.000005 -1.153997 173.861536 -2.612959 -0.673924 0.000001 0.000001 0.102146 69.847208 6.919814 1.994815 26.015912 -7.349212 0.832949 -0.563505 173.695303 0.207161 -0.000020 0.000011 -1.162710 -9.750291 1.731006 0.433809 -0.000006 0.000000 -0.240584 71.796722 -6.883272 -1.952718 25.591937 7.352808 -0.199377 
49.358501 -13.113018 95.632095 -1.456179 1.099005 0.825948 -1.811707 -0.369756 -0.023920 0.379204 -0.744086 -0.061049 2.024341 -0.744829 -0.052094 18.499974 -0.734458 -1.367993 2.712302 -0.049805 -1.375580 7.844623 -72.513605 6.934366 -51.287385 -110.951717 -27.259953 -0.000001 0.000014 -0.000001 1.020663 -2.829872 0.017769 0.000002 0.000007 -3.000000 -5.000173 -7.999750 0.000044 4.086181 69.931752 -3.190451 -39.799574 114.984923 17.154674 0.000003 -0.000001 0.000007 2.829623 0.214531 -0.447231 -0.000001 -0.000007 3.000003 -5.000166 8.000068 -0.000022 1.987039 -176.703974 -2.096800 -179.999991 0.000005 -1.153996 173.754152 -2.618389 -0.679471 0.000002 0.000001 0.104285 69.897000 6.918705 1.994616 26.013890 -7.349209 0.829859 -0.651810 173.712406 0.237926 -0.000020 0.000011 -1.162820 -9.864293 1.709868 0.436450 -0.000006 0.000001 -0.243590 71.837840 -6.882554 -1.953466 25.594365 7.352810 -0.202946 
49.368801 -13.108219 95.624100 -1.436692 1.093796 0.818395 -1.813208 -0.369154 -0.025541 0.376189 -0.741706 -0.064997 2.021320 -0.742464 -0.056076 18.523256 -0.729899 -1.364878 2.682433 -0.051514 -1.372026 7.902524 -72.524711 6.995574 -51.329538 -110.950126 -27.293644 -0.000000 0.000014 0.000001 1.005941 -2.821847 0.017801 -0.000000 0.000008 -2.999998 -5.000173 -7.999751 0.000046 4.057702 69.933398 -3.158808 -39.786887 114.977246 17.153870 0.000004 -0.000001 0.000007 2.817944 0.229610 -0.447247 -0.000002 -0.000007 3.000000 -5.000168 8.000070 -0.000023 1.905351 -176.694835 -2.090398 -179.999991 0.000005 -1.153996 173.645388 -2.623802 -0.684091 0.000002 0.000001 0.106468 69.947114 6.917574 1.994590 26.011766 -7.349216 0.826847 -0.740775 173.729523 0.268177 -0.000020 0.000011 -1.162910 -9.978898 1.689198 0.439064 -0.000007 0.000001 -0.246609 71.879074 -6.881811 -1.954007 25.596788 7.352805 -0.206585 
49.365898 -13.104618 95.622704 -1.416735 1.088647 0.811148 -1.814609 -0.368539 -0.027149 0.373363 -0.739334 -0.068910 2.018499 -0.740108 -0.060023 18.544641 -0.726142 -1.361765 2.653192 -0.052417 -1.368571 7.957809 -72.535817 7.053950 -51.374286 -110.948138 -27.330946 0.000001 0.000014 0.000002 0.992249 -2.814390 0.017826 -0.000000 0.000007 -3.000002 -5.000174 -7.999751 0.000046 4.029977 69.933829 -3.128170 -39.772427 114.970225 17.151609 0.000005 -0.000001 0.000006 2.807676 0.244554 -0.447252 -0.000000 -0.000007 3.000003 -5.000168 8.000070 -0.000021 1.821859 -176.684672 -2.083914 -179.999991 0.000005 -1.153996 173.534480 -2.629191 -0.689842 0.000001 0.000001 0.108723 69.997759 6.916422 1.994529 26.009849 -7.349215 0.824016 -0.830809 173.745655 0.297654 -0.000020 0.000010 -1.162980 -10.094427 1.669279 0.441683 -0.000006 0.000001 -0.249649 71.920294 -6.881013 -1.954837 25.599414 7.352800 -0.210364 
